[Header]
FileType HTR
DataType HTRS
FileVersion 1
NumSegments 64
NumFrames 4
DataFrameRate 30
EulerRotationOrder ZYX
CalibrationUnits mm
RotationUnits Degrees
GlobalAxisofGravity Y
BoneLengthAxis Y
ScaleFactor 1.0
[SegmentNames&Hierarchy]
Hips	GLOBAL
Spine	Hips
Spine1	Spine
Spine2	Spine1
Neck	Spine2
Head	Neck
LeftEye	Head
RightEye	Head
LeftShoulder	Spine2
LeftArm	LeftShoulder
LeftForeArm	LeftArm
LeftHand	LeftForeArm
LeftHandThumb1	LeftHand
LeftHandThumb2	LeftHandThumb1
LeftHandThumb3	LeftHandThumb2
LeftHandThumb4	LeftHandThumb3
LeftHandIndex1	LeftHand
LeftHandIndex2	LeftHandIndex1
LeftHandIndex3	LeftHandIndex2
LeftHandIndex4	LeftHandIndex3
LeftHandMiddle1	LeftHand
LeftHandMiddle2	LeftHandMiddle1
LeftHandMiddle3	LeftHandMiddle2
LeftHandMiddle4	LeftHandMiddle3
LeftHandRing1	LeftHand
LeftHandRing2	LeftHandRing1
LeftHandRing3	LeftHandRing2
LeftHandRing4	LeftHandRing3
LeftHandPinky1	LeftHand
LeftHandPinky2	LeftHandPinky1
LeftHandPinky3	LeftHandPinky2
LeftHandPinky4	LeftHandPinky3
RightShoulder	Spine2
RightArm	RightShoulder
RightForeArm	RightArm
RightHand	RightForeArm
RightHandPinky1	RightHand
RightHandPinky2	RightHandPinky1
RightHandPinky3	RightHandPinky2
RightHandPinky4	RightHandPinky3
RightHandRing1	RightHand
RightHandRing2	RightHandRing1
RightHandRing3	RightHandRing2
RightHandRing4	RightHandRing3
RightHandMiddle1	RightHand
RightHandMiddle2	RightHandMiddle1
RightHandMiddle3	RightHandMiddle2
RightHandMiddle4	RightHandMiddle3
RightHandIndex1	RightHand
RightHandIndex2	RightHandIndex1
RightHandIndex3	RightHandIndex2
RightHandIndex4	RightHandIndex3
RightHandThumb1	RightHand
RightHandThumb2	RightHandThumb1
RightHandThumb3	RightHandThumb2
RightHandThumb4	RightHandThumb3
LeftUpLeg	Hips
LeftLeg	LeftUpLeg
LeftFoot	LeftLeg
LeftToeBase	LeftFoot
RightUpLeg	Hips
RightLeg	RightUpLeg
RightFoot	RightLeg
RightToeBase	RightFoot
[BasePosition]
Hips	0	0	0	0	0	0	1
Spine	0	0	0	0	0	0	1
Spine1	0	0	0	0	0	0	1
Spine2	0	0	0	0	0	0	1
Neck	0	0	0	0	0	0	1
Head	0	0	0	0	0	0	1
LeftEye	0	0	0	0	0	0	1
RightEye	0	0	0	0	0	0	1
LeftShoulder	0	0	0	0	0	0	1
LeftArm	0	0	0	0	0	0	1
LeftForeArm	0	0	0	0	0	0	1
LeftHand	0	0	0	0	0	0	1
LeftHandThumb1	0	0	0	0	0	0	1
LeftHandThumb2	0	0	0	0	0	0	1
LeftHandThumb3	0	0	0	0	0	0	1
LeftHandThumb4	0	0	0	0	0	0	1
LeftHandIndex1	0	0	0	0	0	0	1
LeftHandIndex2	0	0	0	0	0	0	1
LeftHandIndex3	0	0	0	0	0	0	1
LeftHandIndex4	0	0	0	0	0	0	1
LeftHandMiddle1	0	0	0	0	0	0	1
LeftHandMiddle2	0	0	0	0	0	0	1
LeftHandMiddle3	0	0	0	0	0	0	1
LeftHandMiddle4	0	0	0	0	0	0	1
LeftHandRing1	0	0	0	0	0	0	1
LeftHandRing2	0	0	0	0	0	0	1
LeftHandRing3	0	0	0	0	0	0	1
LeftHandRing4	0	0	0	0	0	0	1
LeftHandPinky1	0	0	0	0	0	0	1
LeftHandPinky2	0	0	0	0	0	0	1
LeftHandPinky3	0	0	0	0	0	0	1
LeftHandPinky4	0	0	0	0	0	0	1
RightShoulder	0	0	0	0	0	0	1
RightArm	0	0	0	0	0	0	1
RightForeArm	0	0	0	0	0	0	1
RightHand	0	0	0	0	0	0	1
RightHandPinky1	0	0	0	0	0	0	1
RightHandPinky2	0	0	0	0	0	0	1
RightHandPinky3	0	0	0	0	0	0	1
RightHandPinky4	0	0	0	0	0	0	1
RightHandRing1	0	0	0	0	0	0	1
RightHandRing2	0	0	0	0	0	0	1
RightHandRing3	0	0	0	0	0	0	1
RightHandRing4	0	0	0	0	0	0	1
RightHandMiddle1	0	0	0	0	0	0	1
RightHandMiddle2	0	0	0	0	0	0	1
RightHandMiddle3	0	0	0	0	0	0	1
RightHandMiddle4	0	0	0	0	0	0	1
RightHandIndex1	0	0	0	0	0	0	1
RightHandIndex2	0	0	0	0	0	0	1
RightHandIndex3	0	0	0	0	0	0	1
RightHandIndex4	0	0	0	0	0	0	1
RightHandThumb1	0	0	0	0	0	0	1
RightHandThumb2	0	0	0	0	0	0	1
RightHandThumb3	0	0	0	0	0	0	1
RightHandThumb4	0	0	0	0	0	0	1
LeftUpLeg	0	0	0	0	0	0	1
LeftLeg	0	0	0	0	0	0	1
LeftFoot	0	0	0	0	0	0	1
LeftToeBase	0	0	0	0	0	0	1
RightUpLeg	0	0	0	0	0	0	1
RightLeg	0	0	0	0	0	0	1
RightFoot	0	0	0	0	0	0	1
RightToeBase	0	0	0	0	0	0	1
[Hips]
95	-7.097121239	1033.596313	23.10292053	-4.279619217	-4.819985867	-2.873086452	1.0
96	-7.101978302	1033.655884	23.08291435	-4.291582108	-4.831595421	-2.862092018	1.0
97	-7.050422668	1033.718872	23.03263474	-4.286800861	-4.843822479	-2.847992182	1.0
98	-6.95122242	1033.757813	22.93729401	-4.271832943	-4.856352329	-2.83122468	1.0
[Spine]
95	0	101.8159943	1.315000057	3.603928089	1.809795022	3.040862799	1.0
96	0	101.8159943	1.315000057	3.580166101	1.797827959	3.04049015	1.0
97	0	101.8159943	1.315000057	3.557898521	1.786726475	3.039971828	1.0
98	0	101.8159943	1.315000057	3.540742397	1.774822235	3.042076826	1.0
[Spine1]
95	0	100.8349991	-10.00800037	1.19623971	0.4923653305	1.647674561	1.0
96	0	100.8349991	-10.00800037	1.190305829	0.4874015749	1.648449421	1.0
97	0	100.8349991	-10.00800037	1.184746861	0.4827346206	1.649399519	1.0
98	0	100.8349991	-10.00800037	1.180946589	0.4777218997	1.651354671	1.0
[Spine2]
95	0	91	-13.73399925	1.171075821	0.5153386593	1.649347067	1.0
96	0	91	-13.73399925	1.165124893	0.5103883743	1.6502074	1.0
97	0	91	-13.73399925	1.159544826	0.5057448149	1.65123713	1.0
98	0	91	-13.73399925	1.155725002	0.5007623434	1.653265834	1.0
[Neck]
95	0	166.7169952	-25.16200066	5.965615273	-0.3004458845	0.4160549343	1.0
96	0	166.7169952	-25.16200066	5.941662788	-0.2996042073	0.4540356994	1.0
97	0	166.7169952	-25.16200066	5.902313709	-0.2959747314	0.4884383678	1.0
98	0	166.7169952	-25.16200066	5.858056068	-0.2928046584	0.50954777	1.0
[Head]
95	0	96.17900085	16.84999847	-8.189293861	0.7341419458	-0.2147625387	1.0
96	0	96.17900085	16.84999847	-8.079916954	0.7889911532	-0.2124967575	1.0
97	0	96.17900085	16.84999847	-8.01578331	0.8536301851	-0.2155459076	1.0
98	0	96.17900085	16.84999847	-8.016054153	0.8948386312	-0.2186069191	1.0
[LeftEye]
95	30.6760006	64.09500122	92.83599854	0	0	0	1.0
96	30.6760006	64.09500122	92.83599854	0	0	0	1.0
97	30.6760006	64.09500122	92.83599854	0	0	0	1.0
98	30.6760006	64.09500122	92.83599854	0	0	0	1.0
[RightEye]
95	-30.6760006	64.09500122	92.83499908	0	0	0	1.0
96	-30.6760006	64.09500122	92.83499908	0	0	0	1.0
97	-30.6760006	64.09500122	92.83499908	0	0	0	1.0
98	-30.6760006	64.09500122	92.83499908	0	0	0	1.0
[LeftShoulder]
95	45.70400238	109.4599991	-26.28000069	4.88173151	-16.58724594	-13.15587425	1.0
96	45.70400238	109.4599991	-26.28000069	4.862294197	-16.55016327	-13.0635891	1.0
97	45.70400238	109.4599991	-26.28000069	4.846298695	-16.52019882	-12.98717976	1.0
98	45.70400238	109.4599991	-26.28000069	4.835427761	-16.50040245	-12.93490505	1.0
[LeftArm]
95	105.923996	-5.24600029	-22.32099915	19.8799572	-3.569022417	-71.49279785	1.0
96	105.923996	-5.24600029	-22.32099915	19.90867424	-3.536323547	-71.59134674	1.0
97	105.923996	-5.24600029	-22.32099915	19.92931557	-3.510477304	-71.65847778	1.0
98	105.923996	-5.24600029	-22.32099915	19.95112991	-3.48661685	-71.69780731	1.0
[LeftForeArm]
95	278.414978	-0.0009999999311	0	-1.204947785e-05	-1.448237419	-0.0001941927621	1.0
96	278.414978	-0.0009999999311	0	-1.012977373e-05	-1.456232071	-0.0001912099833	1.0
97	278.414978	-0.0009999999311	0	2.610389856e-06	-1.463971496	-0.0001741551969	1.0
98	278.414978	-0.0009999999311	0	1.995739694e-06	-1.467883229	-0.0001910778228	1.0
[LeftHand]
95	283.2879944	0	0	-32.85081482	-4.4594841	-4.277681351	1.0
96	283.2879944	0	0	-32.80661392	-4.454290867	-4.331450462	1.0
97	283.2879944	0	0	-32.77040482	-4.452573299	-4.397521019	1.0
98	283.2879944	0	0	-32.75488281	-4.460795879	-4.459609509	1.0
[LeftHandThumb1]
95	24.6609993	-15.75	26.8239994	-0.4889889657	2.201390743	4.818541527	1.0
96	24.6609993	-15.75	26.8239994	-0.4889889657	2.201390743	4.818541527	1.0
97	24.6609993	-15.75	26.8239994	-0.4889889657	2.201390743	4.818541527	1.0
98	24.6609993	-15.75	26.8239994	-0.4889889657	2.201390743	4.818541527	1.0
[LeftHandThumb2]
95	32.29800034	-18.64699936	18.64699936	19.88581276	19.96446037	23.26738167	1.0
96	32.29800034	-18.64699936	18.64699936	19.88581276	19.96446037	23.26738167	1.0
97	32.29800034	-18.64699936	18.64699936	19.88581276	19.96446037	23.26738167	1.0
98	32.29800034	-18.64699936	18.64699936	19.88581276	19.96446037	23.26738167	1.0
[LeftHandThumb3]
95	26.52600098	-15.31499958	15.31499958	-13.14535904	5.551738262	7.967928886	1.0
96	26.52600098	-15.31499958	15.31499958	-13.14535904	5.551738262	7.967928886	1.0
97	26.52600098	-15.31499958	15.31499958	-13.14535904	5.551738262	7.967928886	1.0
98	26.52600098	-15.31499958	15.31499958	-13.14535904	5.551738262	7.967928886	1.0
[LeftHandThumb4]
95	19.54599953	-11.28499985	11.28499985	0	0	0	1.0
96	19.54599953	-11.28499985	11.28499985	0	0	0	1.0
97	19.54599953	-11.28499985	11.28499985	0	0	0	1.0
98	19.54599953	-11.28499985	11.28499985	0	0	0	1.0
[LeftHandIndex1]
95	91.09299469	-5.170999527	22.60099792	0.1480516791	-0.9618676901	-7.594518185	1.0
96	91.09299469	-5.170999527	22.60099792	0.1480516791	-0.9618676901	-7.594518185	1.0
97	91.09299469	-5.170999527	22.60099792	0.1480516791	-0.9618676901	-7.594518185	1.0
98	91.09299469	-5.170999527	22.60099792	0.1480516791	-0.9618676901	-7.594518185	1.0
[LeftHandIndex2]
95	36.76399994	0	0	-0.2667043209	1.745171905	-17.37646866	1.0
96	36.76399994	0	0	-0.2667043209	1.745171905	-17.37646866	1.0
97	36.76399994	0	0	-0.2667043209	1.745171905	-17.37646866	1.0
98	36.76399994	0	0	-0.2667043209	1.745171905	-17.37646866	1.0
[LeftHandIndex3]
95	28.83100128	0	0	-0.05742863193	0.817338407	-8.038370132	1.0
96	28.83100128	0	0	-0.05742863193	0.817338407	-8.038370132	1.0
97	28.83100128	0	0	-0.05742863193	0.817338407	-8.038370132	1.0
98	28.83100128	0	0	-0.05742863193	0.817338407	-8.038370132	1.0
[LeftHandIndex4]
95	23.92700005	0	0	0	0	0	1.0
96	23.92700005	0	0	0	0	0	1.0
97	23.92700005	0	0	0	0	0	1.0
98	23.92700005	0	0	0	0	0	1.0
[LeftHandMiddle1]
95	95.33399963	0	0	-0.7942916155	2.538622379	-15.71737862	1.0
96	95.33399963	0	0	-0.7942916155	2.538622379	-15.71737862	1.0
97	95.33399963	0	0	-0.7942916155	2.538622379	-15.71737862	1.0
98	95.33399963	0	0	-0.7942916155	2.538622379	-15.71737862	1.0
[LeftHandMiddle2]
95	36.98199844	0	0	-0.267610997	1.748071074	-17.40625954	1.0
96	36.98199844	0	0	-0.267610997	1.748071074	-17.40625954	1.0
97	36.98199844	0	0	-0.267610997	1.748071074	-17.40625954	1.0
98	36.98199844	0	0	-0.267610997	1.748071074	-17.40625954	1.0
[LeftHandMiddle3]
95	29.50900078	0	0	-0.2992140949	1.84580946	-18.41413307	1.0
96	29.50900078	0	0	-0.2992140949	1.84580946	-18.41413307	1.0
97	29.50900078	0	0	-0.2992140949	1.84580946	-18.41413307	1.0
98	29.50900078	0	0	-0.2992140949	1.84580946	-18.41413307	1.0
[LeftHandMiddle4]
95	28.3390007	0	0	0	0	0	1.0
96	28.3390007	0	0	0	0	0	1.0
97	28.3390007	0	0	0	0	0	1.0
98	28.3390007	0	0	0	0	0	1.0
[LeftHandRing1]
95	91.04499817	-0.4390000105	-18.65100098	-1.184956431	3.436642885	-21.16632462	1.0
96	91.04499817	-0.4390000105	-18.65100098	-1.184956431	3.436642885	-21.16632462	1.0
97	91.04499817	-0.4390000105	-18.65100098	-1.184956431	3.436642885	-21.16632462	1.0
98	91.04499817	-0.4390000105	-18.65100098	-1.184956431	3.436642885	-21.16632462	1.0
[LeftHandRing2]
95	31.54000092	0	0	-0.3849357069	2.085560799	-20.91281319	1.0
96	31.54000092	0	0	-0.3849357069	2.085560799	-20.91281319	1.0
97	31.54000092	0	0	-0.3849357069	2.085560799	-20.91281319	1.0
98	31.54000092	0	0	-0.3849357069	2.085560799	-20.91281319	1.0
[LeftHandRing3]
95	29.37700081	0	0	-0.2818065584	1.792707562	-17.86576271	1.0
96	29.37700081	0	0	-0.2818065584	1.792707562	-17.86576271	1.0
97	29.37700081	0	0	-0.2818065584	1.792707562	-17.86576271	1.0
98	29.37700081	0	0	-0.2818065584	1.792707562	-17.86576271	1.0
[LeftHandRing4]
95	26.47500038	0	0	0	0	0	1.0
96	26.47500038	0	0	0	0	0	1.0
97	26.47500038	0	0	0	0	0	1.0
98	26.47500038	0	0	0	0	0	1.0
[LeftHandPinky1]
95	80.77799988	-4.887000084	-38.06099701	-1.708467126	5.355370045	-27.1653862	1.0
96	80.77799988	-4.887000084	-38.06099701	-1.708467126	5.355370045	-27.1653862	1.0
97	80.77799988	-4.887000084	-38.06099701	-1.708467126	5.355370045	-27.1653862	1.0
98	80.77799988	-4.887000084	-38.06099701	-1.708467126	5.355370045	-27.1653862	1.0
[LeftHandPinky2]
95	36	0	0	-0.2676221728	1.748113751	-17.40663528	1.0
96	36	0	0	-0.2676221728	1.748113751	-17.40663528	1.0
97	36	0	0	-0.2676221728	1.748113751	-17.40663528	1.0
98	36	0	0	-0.2676221728	1.748113751	-17.40663528	1.0
[LeftHandPinky3]
95	21.14200211	0	0	-0.2408525199	1.660349369	-16.50663185	1.0
96	21.14200211	0	0	-0.2408525199	1.660349369	-16.50663185	1.0
97	21.14200211	0	0	-0.2408525199	1.660349369	-16.50663185	1.0
98	21.14200211	0	0	-0.2408525199	1.660349369	-16.50663185	1.0
[LeftHandPinky4]
95	19.75699997	0	0	0	0	0	1.0
96	19.75699997	0	0	0	0	0	1.0
97	19.75699997	0	0	0	0	0	1.0
98	19.75699997	0	0	0	0	0	1.0
[RightShoulder]
95	-45.70000076	109.4620056	-26.28000069	5.279321671	14.94521809	15.86484051	1.0
96	-45.70000076	109.4620056	-26.28000069	5.278574944	14.9518652	15.85690689	1.0
97	-45.70000076	109.4620056	-26.28000069	5.276030064	14.95443916	15.84052563	1.0
98	-45.70000076	109.4620056	-26.28000069	5.271697044	14.94746304	15.81874847	1.0
[RightArm]
95	-105.9280014	-5.248000145	-22.32099915	30.02129745	1.693996072	62.48788071	1.0
96	-105.9280014	-5.248000145	-22.32099915	30.00786972	1.666945934	62.48894501	1.0
97	-105.9280014	-5.248000145	-22.32099915	29.99863434	1.659372807	62.48857117	1.0
98	-105.9280014	-5.248000145	-22.32099915	30.00352287	1.677050352	62.4797287	1.0
[RightForeArm]
95	-278.414978	0	0	1.513770826e-06	6.612050056	2.515902088e-05	1.0
96	-278.414978	0	0	-3.982822363e-06	6.599935532	1.251385675e-05	1.0
97	-278.414978	0	0	5.85474595e-07	6.60166502	2.363136809e-05	1.0
98	-278.414978	0	0	2.758968776e-06	6.604774475	1.660448106e-05	1.0
[RightHand]
95	-283.2879944	0	0.0009999999311	-20.22619247	1.595624328	6.215742588	1.0
96	-283.2879944	0	0.0009999999311	-20.22402954	1.592986584	6.208776951	1.0
97	-283.2879944	0	0.0009999999311	-20.22965431	1.598916292	6.187979698	1.0
98	-283.2879944	0	0.0009999999311	-20.22980118	1.604526281	6.158168316	1.0
[RightHandPinky1]
95	-80.76699829	-4.885000229	-38.06000137	-1.507175922	-4.696118355	26.50587463	1.0
96	-80.76699829	-4.885000229	-38.06000137	-1.507175922	-4.696118355	26.50587463	1.0
97	-80.76699829	-4.885000229	-38.06000137	-1.507175922	-4.696118355	26.50587463	1.0
98	-80.76699829	-4.885000229	-38.06000137	-1.507175922	-4.696118355	26.50587463	1.0
[RightHandPinky2]
95	-36	0	0.0009999999311	-0.2127676606	-1.388874292	17.43785858	1.0
96	-36	0	0.0009999999311	-0.2127676606	-1.388874292	17.43785858	1.0
97	-36	0	0.0009999999311	-0.2127676606	-1.388874292	17.43785858	1.0
98	-36	0	0.0009999999311	-0.2127676606	-1.388874292	17.43785858	1.0
[RightHandPinky3]
95	-21.14200211	0	0	-0.1919144988	-1.32059598	16.53641129	1.0
96	-21.14200211	0	0	-0.1919144988	-1.32059598	16.53641129	1.0
97	-21.14200211	0	0	-0.1919144988	-1.32059598	16.53641129	1.0
98	-21.14200211	0	0	-0.1919144988	-1.32059598	16.53641129	1.0
[RightHandPinky4]
95	-19.75699997	0	0	0	0	0	1.0
96	-19.75699997	0	0	0	0	0	1.0
97	-19.75699997	0	0	0	0	0	1.0
98	-19.75699997	0	0	0	0	0	1.0
[RightHandRing1]
95	-91.03599548	-0.4390000105	-18.65100098	-1.045235753	-2.883111477	20.47788429	1.0
96	-91.03599548	-0.4390000105	-18.65100098	-1.045235753	-2.883111477	20.47788429	1.0
97	-91.03599548	-0.4390000105	-18.65100098	-1.045235753	-2.883111477	20.47788429	1.0
98	-91.03599548	-0.4390000105	-18.65100098	-1.045235753	-2.883111477	20.47788429	1.0
[RightHandRing2]
95	-31.54000092	0	0	-0.3066971898	-1.658752441	20.94926834	1.0
96	-31.54000092	0	0	-0.3066971898	-1.658752441	20.94926834	1.0
97	-31.54000092	0	0	-0.3066971898	-1.658752441	20.94926834	1.0
98	-31.54000092	0	0	-0.3066971898	-1.658752441	20.94926834	1.0
[RightHandRing3]
95	-29.37700081	0	0	-0.2245407403	-1.425854325	17.89771652	1.0
96	-29.37700081	0	0	-0.2245407403	-1.425854325	17.89771652	1.0
97	-29.37700081	0	0	-0.2245407403	-1.425854325	17.89771652	1.0
98	-29.37700081	0	0	-0.2245407403	-1.425854325	17.89771652	1.0
[RightHandRing4]
95	-26.47500038	0	0	0	0	0	1.0
96	-26.47500038	0	0	0	0	0	1.0
97	-26.47500038	0	0	0	0	0	1.0
98	-26.47500038	0	0	0	0	0	1.0
[RightHandMiddle1]
95	-95.32500458	0	0	-0.7017197609	-2.087752104	15.0152874	1.0
96	-95.32500458	0	0	-0.7017197609	-2.087752104	15.0152874	1.0
97	-95.32500458	0	0	-0.7017197609	-2.087752104	15.0152874	1.0
98	-95.32500458	0	0	-0.7017197609	-2.087752104	15.0152874	1.0
[RightHandMiddle2]
95	-36.98199844	0	0	-0.213228479	-1.390354872	17.43750381	1.0
96	-36.98199844	0	0	-0.213228479	-1.390354872	17.43750381	1.0
97	-36.98199844	0	0	-0.213228479	-1.390354872	17.43750381	1.0
98	-36.98199844	0	0	-0.213228479	-1.390354872	17.43750381	1.0
[RightHandMiddle3]
95	-29.50900078	0	0	-0.2384106964	-1.470119596	18.44692802	1.0
96	-29.50900078	0	0	-0.2384106964	-1.470119596	18.44692802	1.0
97	-29.50900078	0	0	-0.2384106964	-1.470119596	18.44692802	1.0
98	-29.50900078	0	0	-0.2384106964	-1.470119596	18.44692802	1.0
[RightHandMiddle4]
95	-28.3390007	0	0.0009999999311	0	0	0	1.0
96	-28.3390007	0	0.0009999999311	0	0	0	1.0
97	-28.3390007	0	0.0009999999311	0	0	0	1.0
98	-28.3390007	0	0.0009999999311	0	0	0	1.0
[RightHandIndex1]
95	-91.08300018	-5.167999744	22.60099792	0.1884763837	1.25192976	6.825599194	1.0
96	-91.08300018	-5.167999744	22.60099792	0.1884763837	1.25192976	6.825599194	1.0
97	-91.08300018	-5.167999744	22.60099792	0.1884763837	1.25192976	6.825599194	1.0
98	-91.08300018	-5.167999744	22.60099792	0.1884763837	1.25192976	6.825599194	1.0
[RightHandIndex2]
95	-36.76399994	0	0	-0.2125098109	-1.388050556	17.40767097	1.0
96	-36.76399994	0	0	-0.2125098109	-1.388050556	17.40767097	1.0
97	-36.76399994	0	0	-0.2125098109	-1.388050556	17.40767097	1.0
98	-36.76399994	0	0	-0.2125098109	-1.388050556	17.40767097	1.0
[RightHandIndex3]
95	-28.83100128	0	0	-0.04576345533	-0.650116384	8.053516388	1.0
96	-28.83100128	0	0	-0.04576345533	-0.650116384	8.053516388	1.0
97	-28.83100128	0	0	-0.04576345533	-0.650116384	8.053516388	1.0
98	-28.83100128	0	0	-0.04576345533	-0.650116384	8.053516388	1.0
[RightHandIndex4]
95	-23.92700005	0	0	0	0	0	1.0
96	-23.92700005	0	0	0	0	0	1.0
97	-23.92700005	0	0	0	0	0	1.0
98	-23.92700005	0	0	0	0	0	1.0
[RightHandThumb1]
95	-24.64799881	-15.72700024	26.82600021	-1.658462524	-0.2891407609	-4.221328735	1.0
96	-24.64799881	-15.72700024	26.82600021	-1.658462524	-0.2891407609	-4.221328735	1.0
97	-24.64799881	-15.72700024	26.82600021	-1.658462524	-0.2891407609	-4.221328735	1.0
98	-24.64799881	-15.72700024	26.82600021	-1.658462524	-0.2891407609	-4.221328735	1.0
[RightHandThumb2]
95	-32.29800034	-18.64699936	18.64699936	22.25259209	-23.88967514	-24.282444	1.0
96	-32.29800034	-18.64699936	18.64699936	22.25259209	-23.88967514	-24.282444	1.0
97	-32.29800034	-18.64699936	18.64699936	22.25259209	-23.88967514	-24.282444	1.0
98	-32.29800034	-18.64699936	18.64699936	22.25259209	-23.88967514	-24.282444	1.0
[RightHandThumb3]
95	-26.52600098	-15.31399918	15.31399918	-14.47830296	-6.743862152	-11.36570263	1.0
96	-26.52600098	-15.31399918	15.31399918	-14.47830296	-6.743862152	-11.36570263	1.0
97	-26.52600098	-15.31399918	15.31399918	-14.47830296	-6.743862152	-11.36570263	1.0
98	-26.52600098	-15.31399918	15.31399918	-14.47830296	-6.743862152	-11.36570263	1.0
[RightHandThumb4]
95	-19.54599953	-11.28499985	11.28499985	0	0	0	1.0
96	-19.54599953	-11.28499985	11.28499985	0	0	0	1.0
97	-19.54599953	-11.28499985	11.28499985	0	0	0	1.0
98	-19.54599953	-11.28499985	11.28499985	0	0	0	1.0
[LeftUpLeg]
95	82.07800293	-67.51699829	-15.99599934	-6.913011074	16.44576454	7.890223026	1.0
96	82.07800293	-67.51699829	-15.99599934	-6.871655941	16.44100571	7.884040833	1.0
97	82.07800293	-67.51699829	-15.99599934	-6.841828346	16.42208672	7.863714218	1.0
98	82.07800293	-67.51699829	-15.99599934	-6.831448078	16.39599991	7.833339691	1.0
[LeftLeg]
95	0	-443.7049866	2.845999956	12.05057335	0.1147044376	4.419670582	1.0
96	0	-443.7049866	2.845999956	11.99685478	0.1315506101	4.420110226	1.0
97	0	-443.7049866	2.845999956	11.92625523	0.1702825427	4.42895174	1.0
98	0	-443.7049866	2.845999956	11.86629295	0.219189167	4.441641808	1.0
[LeftFoot]
95	0	-444.2789917	-29.8219986	1.071965098	0.6952674389	-7.375285149	1.0
96	0	-444.2789917	-29.8219986	1.104921818	0.6956893802	-7.365569592	1.0
97	0	-444.2789917	-29.8219986	1.140664697	0.6968711615	-7.362811565	1.0
98	0	-444.2789917	-29.8219986	1.169522405	0.6979392767	-7.363972664	1.0
[LeftToeBase]
95	0	-87.28699493	107.1060028	-4.870034218	-3.201138043e-06	5.028931582e-07	1.0
96	0	-87.28699493	107.1060028	-4.870295048	-8.223878467e-06	-1.132360239e-06	1.0
97	0	-87.28699493	107.1060028	-4.868966579	-7.337388979e-06	-7.96823997e-07	1.0
98	0	-87.28699493	107.1060028	-4.871150494	4.534022082e-06	5.631097793e-07	1.0
[RightUpLeg]
95	-82.07800293	-67.51699829	-15.99599934	1.04487586	-10.74929333	3.128128529	1.0
96	-82.07800293	-67.51699829	-15.99599934	1.077190042	-10.75732231	3.113345623	1.0
97	-82.07800293	-67.51699829	-15.99599934	1.088394165	-10.76579762	3.094353914	1.0
98	-82.07800293	-67.51699829	-15.99599934	1.068421364	-10.77379513	3.071116447	1.0
[RightLeg]
95	0	-443.7049866	2.861999989	8.996572495	-9.180875778	-4.795079708	1.0
96	0	-443.7049866	2.861999989	8.951406479	-9.183904648	-4.787022591	1.0
97	0	-443.7049866	2.861999989	8.907135963	-9.186507225	-4.77752018	1.0
98	0	-443.7049866	2.861999989	8.897097588	-9.186956406	-4.7716856	1.0
[RightFoot]
95	0	-444.2770081	-29.83799934	-5.094686985	-1.777351618	3.283760548	1.0
96	0	-444.2770081	-29.83799934	-5.070595741	-1.765342116	3.277934074	1.0
97	0	-444.2770081	-29.83799934	-5.042387009	-1.748446465	3.273455143	1.0
98	0	-444.2770081	-29.83799934	-5.026304245	-1.727274776	3.272760391	1.0
[RightToeBase]
95	0	-87.28699493	107.1060028	-7.203404427	-1.252163383e-05	-1.657912435e-06	1.0
96	0	-87.28699493	107.1060028	-7.186251163	7.618982181e-06	1.257503754e-06	1.0
97	0	-87.28699493	107.1060028	-7.169371128	7.491340966e-06	-7.285064498e-07	1.0
98	0	-87.28699493	107.1060028	-7.161839485	1.431045075e-05	-2.433972213e-06	1.0
[EndOfFile]
